<?xml version="1.0" encoding="UTF-8" standalone="no"?>
<!-- Created with Inkscape (http://www.inkscape.org/) -->

<svg
   version="1.1"
   id="svg9"
   width="2000"
   height="300"
   viewBox="0 0 2000 299.99999"
   sodipodi:docname="astrochemis3d.svg"
   inkscape:version="1.2.1 (9c6d41e410, 2022-07-14)"
   xml:space="preserve"
   inkscape:export-filename="astrochemis3d.png"
   inkscape:export-xdpi="96"
   inkscape:export-ydpi="96"
   xmlns:inkscape="http://www.inkscape.org/namespaces/inkscape"
   xmlns:sodipodi="http://sodipodi.sourceforge.net/DTD/sodipodi-0.dtd"
   xmlns="http://www.w3.org/2000/svg"
   xmlns:svg="http://www.w3.org/2000/svg"><defs
     id="defs13" /><sodipodi:namedview
     id="namedview11"
     pagecolor="#505050"
     bordercolor="#eeeeee"
     borderopacity="1"
     inkscape:showpageshadow="0"
     inkscape:pageopacity="0"
     inkscape:pagecheckerboard="0"
     inkscape:deskcolor="#505050"
     showgrid="false"
     inkscape:zoom="0.35355339"
     inkscape:cx="475.17576"
     inkscape:cy="670.33723"
     inkscape:window-width="1920"
     inkscape:window-height="1009"
     inkscape:window-x="-8"
     inkscape:window-y="-8"
     inkscape:window-maximized="1"
     inkscape:current-layer="g225" /><g
     inkscape:groupmode="layer"
     inkscape:label="Image"
     id="g15"><g
       id="g225"
       transform="translate(12.984458,0.16656886)"><g
         id="g1845"
         transform="translate(-20.506094)"><g
           id="g21815"
           transform="matrix(1.1600953,0,0,1.1600953,898.88613,-222.79373)"><rect
             style="fill:#3dff8b;fill-opacity:1;stroke:#000000;stroke-width:3.14;stroke-dasharray:none;stroke-opacity:1"
             id="rect229"
             width="208.10811"
             height="208.10811"
             x="81.541801"
             y="234.07314" /><rect
             style="fill:#a938ff;fill-opacity:1;stroke:#000000;stroke-width:3.14;stroke-dasharray:none;stroke-opacity:1"
             id="rect229-3"
             width="208.10811"
             height="208.10811"
             x="319.37854"
             y="234.07314" /><rect
             style="fill:#ffb945;fill-opacity:1;stroke:#000000;stroke-width:3.14;stroke-dasharray:none;stroke-opacity:1"
             id="rect229-7"
             width="208.10811"
             height="208.10811"
             x="557.21533"
             y="234.07314" /><text
             xml:space="preserve"
             style="font-style:normal;font-variant:normal;font-weight:normal;font-stretch:normal;font-size:143.382px;font-family:Tahoma;-inkscape-font-specification:Tahoma;fill:#000000;fill-opacity:1;stroke:#000000;stroke-width:1;stroke-dasharray:none;stroke-opacity:1"
             x="103.8126"
             y="393.3364"
             id="text5248"
             transform="scale(1.0049863,0.99503844)"><tspan
               sodipodi:role="line"
               id="tspan5246"
               x="103.8126"
               y="393.3364"
               style="font-style:normal;font-variant:normal;font-weight:normal;font-stretch:normal;font-family:Tahoma;-inkscape-font-specification:Tahoma;fill:#000000;stroke-width:1;stroke-dasharray:none">Ch</tspan></text><text
             xml:space="preserve"
             style="font-style:normal;font-variant:normal;font-weight:normal;font-stretch:normal;font-size:126.735px;font-family:Tahoma;-inkscape-font-specification:Tahoma;fill:#000000;fill-opacity:1;stroke:#000000;stroke-width:0.883899;stroke-dasharray:none;stroke-opacity:1"
             x="325.96225"
             y="390.70035"
             id="text5248-2"
             transform="scale(1.0192288,0.98113398)"><tspan
               sodipodi:role="line"
               id="tspan5246-9"
               x="325.96225"
               y="390.70035"
               style="font-style:normal;font-variant:normal;font-weight:normal;font-stretch:normal;font-family:Tahoma;-inkscape-font-specification:Tahoma;fill:#000000;stroke-width:0.883899;stroke-dasharray:none">Em</tspan></text><text
             xml:space="preserve"
             style="font-style:normal;font-variant:normal;font-weight:normal;font-stretch:normal;font-size:143.382px;font-family:Tahoma;-inkscape-font-specification:Tahoma;fill:#000000;fill-opacity:1;stroke:#000000;stroke-width:1;stroke-dasharray:none;stroke-opacity:1"
             x="598.05927"
             y="390.99106"
             id="text5248-9"
             transform="scale(1.0049863,0.99503844)"><tspan
               sodipodi:role="line"
               id="tspan5246-7"
               x="598.05927"
               y="390.99106"
               style="font-style:normal;font-variant:normal;font-weight:normal;font-stretch:normal;font-family:Tahoma;-inkscape-font-specification:Tahoma;fill:#000000;stroke-width:1;stroke-dasharray:none">Is</tspan></text><g
             id="g11102"
             transform="matrix(0.70969628,0,0,0.70969628,252.94418,78.609074)"><path
               style="fill:#000000;stroke-width:0.8"
               d="m 752.12875,326.40878 c -3.08,-0.65688 -8.12,-2.24972 -11.2,-3.53964 -6.4624,-2.70651 -15.6,-8.64756 -15.6,-10.14275 0,-0.56093 1.8448,-8.39378 4.09952,-17.40636 l 4.0996,-16.38649 h 7.35728 7.35736 l 3.62096,3.46951 c 6.4828,6.21159 14.83784,8.98575 20.96872,6.96235 3.48512,-1.15017 9.54728,-7.01887 11.78864,-11.41242 1.81528,-3.55811 4.01624,-13.00634 3.40248,-14.60577 -0.60192,-1.56862 -4.22536,-2.01366 -16.39456,-2.01366 -6.10496,0 -11.1,-0.18558 -11.1,-0.4124 0,-0.22682 2.0156,-8.46996 4.47912,-18.31808 l 4.47912,-17.90567 9.45224,-0.28193 c 9.01536,-0.26889 9.61144,-0.39387 12.89856,-2.70427 4.3476,-3.05586 7.78448,-7.90152 8.43128,-11.88739 l 0.50056,-3.08443 -5.52048,0.31254 c -5.93,0.33573 -14.27096,3.69389 -21.45984,8.63996 -3.45992,2.38048 -3.78312,2.44167 -12.898,2.44167 -8.508,0 -9.31672,-0.12597 -8.98864,-1.4 0.19824,-0.77 2.31,-9.26315 4.69272,-18.87368 l 4.33224,-17.47367 6.40056,-3.07488 c 16.47176,-7.91317 37.42168,-10.41585 50.01048,-5.97426 11.96408,4.22115 19.59595,13.58544 21.29515,26.12888 l 0.5781,4.26761 3.7061,-14.8 3.7062,-14.8 25.5522,0.0134 c 24.2083,0.0127 25.887,0.10963 31.9162,1.84253 18.0326,5.18286 29.3556,16.86944 34.1395,35.23553 4.32771,16.61495 0.289,43.62133 -9.6163,64.30305 -10.0336,20.94979 -24.6663,36.21547 -42.7484,44.59791 -7.7964,3.61422 -14.2853,5.30136 -24.5387,6.38019 -8.8189,0.92789 -52.80933,1.1174 -52.78069,0.22736 0.0104,-0.33 1.43032,-6.17034 3.1548,-12.97854 1.72456,-6.80819 3.02216,-12.49188 2.8836,-12.63041 -0.13848,-0.13853 -1.41232,1.55652 -2.83064,3.7668 -1.41832,2.21027 -5.4636,6.73254 -8.9896,10.0495 -7.35352,6.91773 -16.20808,11.70781 -25.14016,13.60018 -6.95064,1.47261 -18.24696,1.414 -25.49728,-0.13229 z m 13.2,-19.51112 c 21.44464,-3.39736 40.08888,-27.08417 40.08888,-50.93147 0,-9.73496 -3.55384,-15.21869 -11.85728,-18.29636 -2.10736,-0.78108 -3.93168,-1.48636 -4.054,-1.56728 -0.76,-0.50276 1.62096,-4.369 2.69064,-4.369 2.93832,0 10.99952,-5.28237 15.65344,-10.25744 7.8008,-8.33903 11.58904,-18.24863 10.9304,-28.59237 -0.43432,-6.82154 -3.49624,-11.70183 -9.45208,-15.06533 -4.33216,-2.44655 -4.56648,-2.48432 -15.2,-2.44972 -9.95536,0.0324 -11.39592,0.23415 -18.41928,2.57968 -4.19064,1.39949 -7.17313,3.80456 -7.94985,4.3725 -1.09744,0.80246 -5.54279,10.02167 -5.61719,12.70793 -0.008,0.27239 3.07648,-1.0556 6.85328,-2.9511 18.48448,-9.27695 33.95448,-7.34833 37.18136,4.63534 2.93872,10.91343 -6.15472,26.50988 -18.04736,30.95375 -2.63944,0.98627 -7.19808,1.99435 -10.1304,2.24018 l -5.33144,0.44697 -1.26952,5.05421 c -0.69832,2.77982 -1.2696,5.20509 -1.2696,5.38948 0,0.1844 2.97,0.49551 6.6,0.69135 7.75912,0.41861 11.76992,2.06306 14.83592,6.08281 5.9912,7.85485 1.04736,28.94115 -9.286,39.60639 -1.62248,1.67456 -5.19672,4.15239 -7.9428,5.50631 -10.76096,5.30558 -24.2324,3.37659 -34.72464,-4.97227 l -2.91752,-2.32152 -1.78824,7.23709 c -1.52032,6.15297 -1.62256,7.39908 -0.68248,8.31839 2.65264,2.59398 16.38232,6.51276 23.50576,6.70912 1.32,0.0364 4.74,-0.30456 7.6,-0.75764 z m 98.39997,-4.29001 c 24.4886,-6.25825 45.2481,-30.34553 53.2411,-61.77574 5.2448,-20.62346 3.9574,-36.79147 -3.8581,-48.45135 -5.4744,-8.16721 -14.0919,-12.81732 -26.5427,-14.32284 -3.5422,-0.42831 -13.2432,-0.67646 -21.5577,-0.55146 l -15.1175,0.22729 -15.7756,63.47848 -15.77571,63.47847 20.09311,-0.37697 c 15.0967,-0.28323 21.3862,-0.70743 25.2931,-1.70588 z m -19.4893,-58.57514 c 6.8007,-27.22443 12.7218,-50.84896 13.158,-52.49896 l 0.793,-3 8.5691,0.0159 c 11.1627,0.0206 18.6843,1.15329 24.0885,3.62742 16.4698,7.54015 21.0809,24.13693 14.1341,50.87373 -5.5648,21.41769 -16.3339,36.74859 -31.0446,44.19531 -8.988,4.5498 -13.0205,5.38365 -28.336,5.8593 l -13.72725,0.42631 z m 26.6893,40.70336 c 5.6415,-2.49815 13.1706,-8.61522 17.2823,-14.04104 9.451,-12.47143 15.7534,-35.46537 13.1534,-47.98946 -1.8243,-8.78758 -7.2635,-12.58281 -18.9102,-13.19459 l -7.2745,-0.38212 -9.3564,37.50245 c -5.1461,20.62634 -9.5627,38.18235 -9.8147,39.01336 -0.4276,1.41043 -0.066,1.48347 5.431,1.09825 3.2831,-0.23006 7.4822,-1.11811 9.4891,-2.00685 z m -41.40765,-44.00232 c 1.98856,-8.03 3.52895,-14.6 3.42305,-14.6 -0.1059,0 -1.69057,2.31634 -3.52153,5.14743 -1.83088,2.83109 -4.95312,6.57717 -6.9384,8.32465 l -3.60952,3.17721 2.0156,2.97015 c 1.9296,2.84334 3.62456,7.47986 3.634,9.94056 0.0128,3.35227 1.74928,-1.8464 4.9968,-14.96 z"
               id="path7225"
               sodipodi:nodetypes="sssscccssssssscssscssssscssscccsssssscsssssssssssssssssscssssccsssssscssssssssscccsscscsssssccssssccssssssscsss" /><path
               style="fill:#ffffff;fill-opacity:1;stroke:#000000;stroke-width:1.13019;stroke-dasharray:none;stroke-opacity:1"
               d="m 750.27815,306.46549 c -5.45823,-1.16039 -12.63077,-3.53073 -14.74935,-4.8743 -1.49514,-0.94819 -1.62755,-1.15153 -1.62755,-2.49941 0,-1.24756 1.26409,-7.18769 2.5429,-11.94937 l 0.36069,-1.34304 2.95737,2.25062 c 5.27049,4.01096 11.27053,6.58514 17.30555,7.42453 3.76218,0.52327 5.67015,0.49129 9.3901,-0.15742 5.92602,-1.03341 12.11749,-4.18153 16.01894,-8.14501 7.69479,-7.81712 13.09908,-23.4318 11.56679,-33.42007 -0.55206,-3.59864 -1.79699,-6.04433 -4.19005,-8.23146 -3.0681,-2.80407 -6.04183,-3.67422 -14.87414,-4.35235 -2.44929,-0.18805 -4.50442,-0.39308 -4.56696,-0.45563 -0.0625,-0.0626 0.46334,-2.41826 1.16864,-5.23493 l 1.28235,-5.1212 h 1.61872 c 2.66113,0 8.99564,-1.06279 12.11231,-2.03218 7.26777,-2.26053 13.4787,-7.91435 17.33976,-15.78445 3.37023,-6.8696 3.865,-13.10291 1.45748,-18.36164 -3.6255,-7.91912 -14.38111,-10.24656 -27.51602,-5.95427 -1.81041,0.59161 -5.97698,2.3125 -9.25904,3.82419 -3.28206,1.51169 -6.04697,2.66893 -6.14425,2.57165 -0.40463,-0.40463 2.18939,-8.87522 3.5334,-11.53805 15.64535,-8.19439 27.47897,-12.33451 41.83998,-5.81521 6.6859,3.03511 9.94478,8.17021 10.60917,14.93717 0.77676,7.91148 -1.6164,16.62988 -6.57019,23.93548 -2.08664,3.07728 -7.29222,8.33934 -10.62045,10.73569 -3.3581,2.41785 -6.41725,3.63881 -8.47299,4.56141 -0.75455,0.33864 -2.33815,1.36733 -3.05663,2.76581 -0.86528,1.68421 -0.56701,2.02959 2.86196,3.314 9.76595,3.65809 12.9916,9.02851 12.4542,20.73512 -1.03352,22.51426 -18.18324,43.95807 -38.57575,48.23468 -1.5837,0.33212 -4.90408,0.67001 -7.37861,0.75086 -3.82673,0.12504 -5.14466,0.01 -8.81833,-0.77122 z"
               id="path8101"
               sodipodi:nodetypes="cssscssssssssscsssssssccsssssssssc" /><path
               style="fill:#ffffff;fill-opacity:1;stroke:#000000;stroke-width:1.13019;stroke-dasharray:none;stroke-opacity:1"
               d="m 827.37896,269.13911 c 4.83129,-19.44982 11.89706,-47.91594 15.70171,-63.25803 l 6.91755,-27.89473 h 17.6272 c 18.32182,0 20.5175,0.13684 26.23812,1.63521 15.33027,4.01538 24.28476,15.70169 25.84517,33.72997 0.81101,9.36996 -1.03957,22.3964 -4.81902,33.92172 -8.23331,25.10718 -24.26368,44.33185 -43.93716,52.69229 -4.2695,1.81437 -9.06852,2.97655 -14.18118,3.43426 -3.64227,0.32608 -28.46148,1.08798 -35.80179,1.09905 l -2.37478,0.004 z m 24.4,23.8119 c 9.85748,-0.53366 14.29452,-1.60689 21.39789,-5.17573 11.06169,-5.55754 18.75925,-13.64352 25.13849,-26.40698 4.43848,-8.88043 7.82725,-20.01818 9.2714,-30.47195 0.82221,-5.95173 0.57019,-15.68518 -0.51258,-19.79626 -1.65054,-6.26683 -5.60111,-12.25288 -10.42191,-15.79167 -3.86801,-2.83938 -9.3909,-4.99542 -15.28733,-5.9679 -3.2889,-0.54243 -12.26646,-1.07518 -18.31255,-1.08672 l -4.92352,-0.009 -0.54585,1.88965 c -0.82517,2.85656 -25.78026,102.78793 -25.78026,103.2357 0,0.41323 7.52013,0.2556 19.97622,-0.41875 z"
               id="path8103" /></g></g><g
           id="g21851"
           transform="matrix(1.1600953,0,0,1.1600953,92.187675,9.1695916)"><path
             d="m 615.61882,129.85772 c 6.26859,0.74173 13.36157,1.97002 20.5098,3.543 6.21177,1.36734 12.78881,3.21568 17.92709,4.79033 l -2.61426,-1.03088 c -9.28056,-3.65836 -29.0037,-8.94997 -35.22302,-8.91675 -0.11503,0.56577 -0.3787,1.08425 -0.59961,1.6143 z"
             style="fill:#00adef;fill-opacity:1;stroke:none;stroke-width:2.73271;stroke-dasharray:none;stroke-opacity:1"
             id="path10905"
             sodipodi:nodetypes="cccccc" /><text
             xml:space="preserve"
             style="font-style:italic;font-variant:normal;font-weight:normal;font-stretch:normal;font-size:291.821px;font-family:Georgia;-inkscape-font-specification:'Georgia, Italic';font-variant-ligatures:normal;font-variant-caps:normal;font-variant-numeric:normal;font-variant-east-asian:normal;letter-spacing:6.20453px;fill:#ffffff;fill-opacity:1;stroke:#000000;stroke-width:5.34829;stroke-dasharray:none;stroke-opacity:1"
             x="-11.895748"
             y="221.63669"
             id="text8420"><tspan
               sodipodi:role="line"
               id="tspan8418"
               x="-11.895748"
               y="221.63669"
               style="font-style:italic;font-variant:normal;font-weight:normal;font-stretch:normal;font-size:291.821px;font-family:Georgia;-inkscape-font-specification:'Georgia, Italic';font-variant-ligatures:normal;font-variant-caps:normal;font-variant-numeric:normal;font-variant-east-asian:normal;fill:#ffffff;stroke:#000000;stroke-width:5.34829;stroke-dasharray:none"
               dx="0">Astro</tspan></text><path
             id="path9260"
             style="fill:#00adef;fill-opacity:1;stroke:none;stroke-width:5.15256;stroke-dasharray:none;stroke-opacity:1"
             d="m 587.92705,122.4677 c -19.6861,-0.8963 -31.52747,1.37647 -32.60188,6.2577 -2.10747,9.55038 36.78857,26.23085 86.87324,37.25539 50.08031,11.02345 84.23862,15.31958 86.34059,5.76888 0.98161,-4.44528 4.12395,-2.9772 -9.6556,-9.22276 l -1.28542,0.21466 c 7.8853,3.82952 9.41944,1.10978 7.29284,1.47231 -1.50352,6.83618 -33.64795,4.09384 -74.85737,-4.97712 -41.20975,-9.07109 -72.45849,-22.12028 -71.89044,-28.80202 1.67482,-3.59933 4.11296,-3.48694 9.46555,-4.14226 l 1.958,-3.71321 c -0.29179,-0.0349 -0.89795,-0.0748 -1.63952,-0.11155 z"
             sodipodi:nodetypes="ccsccccsccccc" /><circle
             style="fill:#ff6a00;fill-opacity:1;stroke:#000000;stroke-width:3.62985;stroke-dasharray:none;stroke-opacity:1"
             id="path10795"
             cx="718.39563"
             cy="174.46788"
             r="15.004298" /></g></g></g></g></svg>
